<svg id="Layer_1" data-name="Layer 1" xmlns="http://www.w3.org/2000/svg" width="806.3" height="598.67" viewBox="0 0 806.3 598.67">
  <defs>
    <style>
      .cls-1 {
        fill: #ed1c24;
      }

      .cls-2 {
        fill: #f2f2f2;
      }
    </style>
  </defs>
  <g>
    <path class="cls-1" d="M806,508.6h0v-2.4c-.1-12.4-.8-67.1-4.6-87.6-2.9-15.5-17.7-102.5-32-144.6-9.4-27.7-13.1-53-17-64.9-12-35.7-33-65.7-33-65.7s-9.5-13.1-10.1-16.3-4.7-8.6-4.7-8.6a53.73,53.73,0,0,0-7.4-1.7h0v-6.9a2.14,2.14,0,0,0-1.1-1.9c-4.5-2.9-23.4-13.6-51.5-13.6-26.9,0-41.1,5.9-45.1,8a2.2,2.2,0,0,0-1.2,2v11h0c-7.4,1.2-9.6,2.4-9.6,2.4a22.51,22.51,0,0,1-5.9,4.8c-3.5,1.8-11.7,1.7-11.7,1.7H537.7a1,1,0,0,0-.9.3,5.3,5.3,0,0,0-.6,2h-1.6a6.6,6.6,0,0,0-5.7-4.1H277.2a6.72,6.72,0,0,0-5.7,4.1h-1.6a7.13,7.13,0,0,0-.6-2,1.06,1.06,0,0,0-.9-.3H235s-8.2.2-11.7-1.7a20.51,20.51,0,0,1-5.9-4.8s-2.1-1.2-9.6-2.4h0v-11a2.27,2.27,0,0,0-1.2-2c-4-2-18.2-8-45.1-8-28.2,0-47,10.7-51.5,13.6a2.14,2.14,0,0,0-1.1,1.9v6.9h0c-5.1,1-7.4,1.7-7.4,1.7s-4.1,5.3-4.7,8.6-10.1,16.3-10.1,16.3-21,30-33,65.7c-4,11.9-7.7,37.2-17,64.9C22.4,316.1,7.6,403.1,4.7,418.6.9,439.1.2,493.8.1,506.2v2.4h0v.2h0c.2,2.5,3.6,35.7,20.8,59.5h0c.5.7,1.1,1.4,1.6,2.1a.1.1,0,0,0,.1.1c.5.7,1.1,1.4,1.6,2h0c.6.7,1.1,1.3,1.7,1.9l.2.2c.6.6,1.1,1.2,1.7,1.8l.1.1c.6.6,1.2,1.2,1.8,1.7l.3.3c.6.5,1.2,1,1.8,1.6l.1.1c.6.5,1.3,1,1.9,1.5.2.1.3.2.5.3a24.26,24.26,0,0,0,2,1.4c31.7,21.5,56.7,14,56.7,14h.1c.1,0,.1,0,.2-.1h.1c.1,0,.3-.1.4-.1h0c.2,0,.3-.1.5-.2h.1a6.37,6.37,0,0,1,.7-.2c.1,0,.1,0,.2-.1.3-.1.5-.2.8-.3h.1l.9-.3c.1,0,.1,0,.2-.1a7.6,7.6,0,0,0,1.1-.4c.1,0,.2-.1.3-.1a6.12,6.12,0,0,0,1.2-.5c.1,0,.1-.1.2-.1.4-.2.8-.3,1.2-.5a.35.35,0,0,0,.2-.1c.4-.2.9-.4,1.4-.6.1,0,.2-.1.3-.1a10.09,10.09,0,0,0,1.5-.7c.1,0,.2-.1.3-.1a10.09,10.09,0,0,0,1.5-.7.35.35,0,0,0,.2-.1c.5-.3,1.1-.5,1.7-.8.1-.1.3-.1.4-.2.6-.3,1.1-.6,1.7-.9.1-.1.2-.1.3-.2.6-.3,1.1-.6,1.7-.9.1,0,.1-.1.2-.1.6-.3,1.2-.7,1.9-1.1a.76.76,0,0,1,.4-.2c.6-.4,1.3-.7,1.9-1.1a.76.76,0,0,1,.4-.2c.7-.4,1.3-.8,2-1.2a.1.1,0,0,0,.1-.1h0a118.68,118.68,0,0,0,31.5-29.6c.5-.7,1-1.4,1.5-2.2.1-.2.3-.4.4-.6a16.44,16.44,0,0,0,1.4-2.2c0-.1.1-.1.1-.2.5-.8,1.1-1.7,1.6-2.5.1-.2.2-.3.3-.5.5-.8,1-1.7,1.5-2.5l.1-.1c.6-1,1.1-1.9,1.7-2.9.1-.1.1-.2.2-.3.5-1,1.1-2,1.7-3h0l1.8-3.3V535c21.9-41.6,44.3-108.8,44.3-108.8a24.5,24.5,0,0,1,5.7-5.3,15.79,15.79,0,0,1,6.3-2.6h1.9a76.55,76.55,0,0,0,106.9.1h36c0,2.8,1.8,2.2,4.6,2.2h67.9c2.8,0,5.5.6,5.5-2.2h35.9a76.55,76.55,0,0,0,106.9-.1H587a15.79,15.79,0,0,1,6.3,2.6,24.5,24.5,0,0,1,5.7,5.3s22.5,67.2,44.3,108.8v.1l1.8,3.3h0c.6,1,1.1,2,1.7,3,.1.1.1.2.2.3.6,1,1.1,2,1.7,2.9l.1.1c.5.9,1,1.7,1.5,2.5.1.2.2.3.3.5.5.9,1.1,1.7,1.6,2.5,0,.1.1.1.1.2.5.7,1,1.5,1.4,2.2.1.2.3.4.4.6.5.7,1,1.5,1.5,2.2A117.2,117.2,0,0,0,687.1,585h0a.1.1,0,0,1,.1.1c.7.4,1.3.8,2,1.2a.76.76,0,0,0,.4.2,18.58,18.58,0,0,0,1.9,1.1.76.76,0,0,0,.4.2c.6.4,1.3.7,1.9,1.1.1,0,.1.1.2.1.6.3,1.2.6,1.7.9.1.1.2.1.3.2.6.3,1.2.6,1.7.9.1.1.3.1.4.2.6.3,1.1.5,1.7.8a.35.35,0,0,1,.2.1c.5.2,1,.5,1.5.7.1,0,.2.1.3.1a10.09,10.09,0,0,1,1.5.7c.1,0,.2.1.3.1.5.2.9.4,1.4.6a.35.35,0,0,1,.2.1c.4.2.8.3,1.2.5.1,0,.1.1.2.1.4.2.8.3,1.2.5.1,0,.2.1.3.1.4.1.7.3,1.1.4.1,0,.1,0,.2.1l.9.3h.1a6.89,6.89,0,0,1,.8.3c.1,0,.1,0,.2.1s.5.1.7.2h.1c.2.1.4.1.5.2h0c.2,0,.3.1.4.1h.1a.35.35,0,0,1,.2.1h.1s25,7.5,56.7-14c.7-.5,1.3-.9,2-1.4.2-.1.3-.2.5-.3.6-.5,1.3-1,1.9-1.5l.1-.1c.6-.5,1.2-1,1.8-1.6l.3-.3c.6-.6,1.2-1.1,1.8-1.7l.1-.1c.6-.6,1.1-1.2,1.7-1.8l.2-.2c.6-.6,1.1-1.3,1.7-1.9h0c.6-.7,1.1-1.3,1.6-2a.1.1,0,0,1,.1-.1c.5-.7,1.1-1.4,1.6-2.1h0c17.2-23.8,20.6-57,20.8-59.5h0v-.1S806,508.7,806,508.6Z" transform="translate(-0.1 0)"/>
    <path class="cls-1" d="M608.8,89.3c.5,0,1.1-.1,1.6-.1,4.4-.3,9.6-.6,15-.9,1.3-.1,2.7-.1,4-.2l8-.3c1.3,0,2.6-.1,3.8-.1s2.4,0,3.6-.1h1.7c17.9,0,50.6,3.2,50.6,3.2h0a.77.77,0,0,0-.1-.3v-.3h0a.37.37,0,0,0-.1-.3v-.3a3.09,3.09,0,0,0-.2-.8v-.1c0-.1-.1-.3-.1-.4v-.1c-2.3-11-11.4-53.8-19.4-66.8C668.1,6.4,653.5,0,642.6,0S629,3.4,619.9,10.1,604.6,30.7,603,38c-1.2,5.5-3.3,32.4-4.3,45.2h0V86h0c0,.6-.1,1.1-.1,1.6v.5h0a17.36,17.36,0,0,0-.1,1.8V90s1.9-.1,5-.4C604.8,89.5,606.7,89.4,608.8,89.3Z" transform="translate(-0.1 0)"/>
    <path class="cls-1" d="M207.8,90h0c0-.3-.1-.9-.1-1.9h0v-.5c0-.5-.1-1-.1-1.6h0V83.3c-1-12.8-3.1-39.7-4.3-45.2-1.6-7.3-7.7-21.3-16.9-27.9S174.2,0,163.4,0,138,6.4,128.8,21.4c-8,13-17.1,55.8-19.4,66.8v.1c0,.2-.1.3-.1.4v.1c-.1.3-.1.6-.2.8v.3a.37.37,0,0,1-.1.3h0v.3a.37.37,0,0,1-.1.3h0s32.7-3.2,50.6-3.2S207.8,90,207.8,90Z" transform="translate(-0.1 0)"/>
  </g>
  <g>
    <path class="cls-2" d="M171.5,251.7a101.52,101.52,0,0,1,15.7-1.1c10.1,0,17,2.1,22,6.2,5.2,4.2,8.4,10.6,8.4,19.8,0,9.6-3.3,16.8-8.4,21.4-5.4,4.9-13.9,7.4-24.4,7.4a108.08,108.08,0,0,1-13.3-.7v-53Zm9.9,45.7a43.58,43.58,0,0,0,5.4.2c12.8.1,20.4-7,20.4-20.6.1-11.9-6.8-18.7-19.1-18.7a26.06,26.06,0,0,0-6.7.6v38.5Z" transform="translate(-0.1 0)"/>
    <path class="cls-2" d="M236.5,255.1a5.23,5.23,0,0,1-5.6,5.3,5.12,5.12,0,0,1-5.4-5.3,5.28,5.28,0,0,1,5.5-5.4A5.34,5.34,0,0,1,236.5,255.1ZM226,304.9v-39h9.9v39Z" transform="translate(-0.1 0)"/>
    <path class="cls-2" d="M246,295.9a21.4,21.4,0,0,0,10,2.8c4.3,0,6.2-1.8,6.2-4.3s-1.6-4-6.4-5.7c-7.6-2.6-10.8-6.8-10.7-11.4,0-6.9,5.7-12.2,14.7-12.2a22.74,22.74,0,0,1,10.3,2.3l-1.9,7a17.1,17.1,0,0,0-8.2-2.2c-3.5,0-5.4,1.7-5.4,4.1s1.8,3.7,6.8,5.4c7,2.6,10.3,6.2,10.4,11.9,0,7-5.5,12.2-15.8,12.2a24.79,24.79,0,0,1-11.8-2.7Z" transform="translate(-0.1 0)"/>
    <path class="cls-2" d="M308.5,303.7a27.91,27.91,0,0,1-11,2c-12.2,0-20.1-7.8-20.1-19.8,0-11.7,8-20.8,21.7-20.8a25.09,25.09,0,0,1,9.5,1.8l-1.8,7.4a17.56,17.56,0,0,0-7.4-1.5c-7.5,0-12,5.5-11.9,12.6,0,8,5.2,12.6,11.9,12.6a20,20,0,0,0,7.8-1.5Z" transform="translate(-0.1 0)"/>
    <path class="cls-2" d="M352.1,285.1c0,14.3-10.1,20.7-20,20.7-11,0-19.5-7.6-19.5-20.1,0-12.8,8.4-20.6,20.2-20.6C344.3,265.1,352.1,273.3,352.1,285.1Zm-29.4.4c0,7.5,3.7,13.2,9.7,13.2,5.6,0,9.5-5.5,9.5-13.4,0-6.1-2.7-13-9.4-13C325.5,272.3,322.7,279,322.7,285.5Z" transform="translate(-0.1 0)"/>
    <path class="cls-2" d="M360.2,277.6c0-4.5-.1-8.2-.3-11.6h8.6l.5,5.8h.2a14.12,14.12,0,0,1,12.4-6.7c6.8,0,13.8,4.4,13.8,16.7v23.1h-9.8v-22c0-5.6-2.1-9.8-7.4-9.8a8.35,8.35,0,0,0-7.7,5.8,10.8,10.8,0,0,0-.4,3.2V305h-9.9V277.6Z" transform="translate(-0.1 0)"/>
    <path class="cls-2" d="M405.9,277.6c0-4.5-.1-8.2-.3-11.6h8.6l.5,5.8h.2a14.12,14.12,0,0,1,12.4-6.7c6.8,0,13.8,4.4,13.8,16.7v23.1h-9.8v-22c0-5.6-2.1-9.8-7.4-9.8a8.35,8.35,0,0,0-7.7,5.8,10.8,10.8,0,0,0-.4,3.2V305h-9.9V277.6Z" transform="translate(-0.1 0)"/>
    <path class="cls-2" d="M458.6,288.2c.2,7,5.8,10.1,12,10.1a27.65,27.65,0,0,0,10.8-1.8l1.4,6.8a36,36,0,0,1-13.6,2.4c-12.6,0-20.1-7.8-20.1-19.7,0-10.8,6.6-21,19-21,12.6,0,16.8,10.4,16.8,19a35.19,35.19,0,0,1-.3,4.2Zm17.2-6.9c.1-3.6-1.5-9.5-8.1-9.5-6.1,0-8.6,5.5-9,9.5Z" transform="translate(-0.1 0)"/>
    <path class="cls-2" d="M521.6,303.7a27.91,27.91,0,0,1-11,2c-12.2,0-20.1-7.8-20.1-19.8,0-11.7,8-20.8,21.7-20.8a25.09,25.09,0,0,1,9.5,1.8l-1.8,7.4a17.56,17.56,0,0,0-7.4-1.5c-7.5,0-12,5.5-11.9,12.6,0,8,5.2,12.6,11.9,12.6a20,20,0,0,0,7.8-1.5Z" transform="translate(-0.1 0)"/>
    <path class="cls-2" d="M541.4,254.9V266h9.4v7.4h-9.4v17.2c0,4.7,1.3,7.2,5,7.2a11.56,11.56,0,0,0,3.8-.5l.2,7.5a20.2,20.2,0,0,1-7.1,1,11.54,11.54,0,0,1-8.5-3.2c-2.1-2.2-3-5.8-3-10.9V273.4h-5.6V266h5.6v-8.8Z" transform="translate(-0.1 0)"/>
    <path class="cls-2" d="M564.6,288.2c.2,7,5.8,10.1,12,10.1a27.65,27.65,0,0,0,10.8-1.8l1.4,6.8a36,36,0,0,1-13.6,2.4c-12.6,0-20.1-7.8-20.1-19.7,0-10.8,6.6-21,19-21,12.6,0,16.8,10.4,16.8,19a35.19,35.19,0,0,1-.3,4.2Zm17.2-6.9c.1-3.6-1.5-9.5-8.1-9.5-6.1,0-8.6,5.5-9,9.5Z" transform="translate(-0.1 0)"/>
    <path class="cls-2" d="M634.9,248.1V294c0,4,.2,8.3.3,11h-8.8l-.4-6.2h-.2c-2.3,4.3-7,7-12.7,7-9.3,0-16.6-7.9-16.6-19.9-.1-13,8.1-20.8,17.4-20.8,5.4,0,9.2,2.2,11,5.1h.2V248.1ZM625,282.2a22.75,22.75,0,0,0-.2-2.6,8.72,8.72,0,0,0-8.5-7c-6.3,0-9.8,5.6-9.8,12.9,0,7.1,3.5,12.3,9.8,12.3a8.71,8.71,0,0,0,8.5-7,12.92,12.92,0,0,0,.3-2.9l-.1-5.7Z" transform="translate(-0.1 0)"/>
  </g>
</svg>
