<?xml version="1.0" encoding="utf-8"?>
<!-- Generator: Adobe Illustrator 27.3.1, SVG Export Plug-In . SVG Version: 6.00 Build 0)  -->
<svg version="1.1" xmlns="http://www.w3.org/2000/svg" xmlns:xlink="http://www.w3.org/1999/xlink" x="0px" y="0px"
	 viewBox="0 0 178.5 103.9" style="enable-background:new 0 0 178.5 103.9;" xml:space="preserve">
<g id="Layer_1">
	<path style="fill:#FFFFFF;enable-background:new    ;" d="M124.5,67.8c0-0.1-0.1-0.2-0.2-0.2c-0.1-0.1-0.1-0.1-0.2-0.2
		c0,0,0,0-0.1-0.1c-1.7-1.8-6.9-6.5-10.8-9.8c0,0,0,0,0,0c-2.4-2-4.2-3.6-4.5-3.7c-0.7-0.4-28.5-2.2-31.4,1.3
		c-2.9,3.5-2.6,15.6-2.6,15.6s-0.3,12.1,2.6,15.6c2.9,3.5,30.7,1.7,31.4,1.3c0.2-0.1,2.1-1.7,4.5-3.7c0,0,0,0,0,0
		c3.9-3.3,9.1-8,10.8-9.8c0,0,0,0,0.1-0.1c0.1-0.1,0.1-0.1,0.2-0.2c0.1-0.1,0.1-0.2,0.2-0.2c1.4-2,1.2-2.9,1.2-2.9
		S125.9,69.8,124.5,67.8z"/>
	<path style="fill:#FFFFFF;enable-background:new    ;" d="M70.7,55.6C67.2,52.7,55.1,53,55.1,53S43,52.8,39.5,55.6
		S37.8,86.3,38.2,87c0.1,0.2,1.7,2.1,3.7,4.5c0,0,0,0,0,0c3.3,3.9,8,9.1,9.8,10.8c0,0,0,0,0.1,0.1c0.1,0.1,0.1,0.1,0.2,0.2
		c0.1,0.1,0.2,0.1,0.2,0.2c2,1.4,2.9,1.2,2.9,1.2s0.9,0.2,2.9-1.2c0.1,0,0.2-0.1,0.2-0.2c0.1-0.1,0.1-0.1,0.2-0.2c0,0,0,0,0.1-0.1
		c1.8-1.7,6.5-6.9,9.8-10.8c0,0,0,0,0,0c2-2.4,3.6-4.2,3.7-4.5C72.4,86.3,74.2,58.5,70.7,55.6z"/>
	<path style="fill:#FFFFFF;enable-background:new    ;" d="M175.9,55.1c-2.9-3.5-30.7-1.7-31.4-1.3c-0.7,0.4-14.3,12-15.7,14
		c-1.4,2-1.2,2.9-1.2,2.9s-0.2,0.9,1.2,2.9c0.1,0.2,0.4,0.5,0.8,0.9c1.9,2,6.8,6.3,10.5,9.5c0,0,0,0,0,0c2.3,2,4.1,3.5,4.4,3.6
		c0.7,0.4,28.5,2.2,31.4-1.3c2.9-3.5,2.6-15.6,2.6-15.6S178.8,58.6,175.9,55.1z"/>
	<path style="fill:#FFFFFF;enable-background:new    ;" d="M34.6,69.9c-0.1-0.2-1.7-2.1-3.7-4.5c0,0,0,0,0,0
		c-3.3-3.9-8-9.1-9.8-10.8c0,0,0,0-0.1-0.1c-0.1-0.1-0.1-0.1-0.2-0.2c-0.1-0.1-0.2-0.1-0.2-0.2c-2-1.4-2.9-1.2-2.9-1.2
		s-0.9-0.2-2.9,1.2c-0.1,0-0.2,0.1-0.2,0.2c-0.1,0.1-0.1,0.1-0.2,0.2c0,0,0,0-0.1,0.1c-1.8,1.7-6.5,6.9-9.8,10.8c0,0,0,0,0,0
		c-2,2.4-3.6,4.2-3.7,4.5c-0.4,0.7-2.2,28.5,1.3,31.4c3.5,2.9,15.6,2.6,15.6,2.6s12.1,0.3,15.6-2.6C36.8,98.4,35,70.6,34.6,69.9z"/>
</g>
<g id="Hide" style="display:none;">
	<g style="display:inline;">
		<g>
			<path style="fill:#1A1A1A;" d="M124.5,20.6c1.4-2,1.2-2.9,1.2-2.9s0.2-0.9-1.2-2.9s-15-13.6-15.7-14S80.3-1.4,77.4,2.1
				s-2.6,15.6-2.6,15.6s-0.3,12.1,2.6,15.6s30.7,1.7,31.4,1.3S123.1,22.6,124.5,20.6z"/>
			<path style="opacity:0.25;enable-background:new    ;" d="M124.5,20.6c1.4-2,1.2-2.9,1.2-2.9s0.2-0.9-1.2-2.9
				c-0.9-1.3-6.9-6.6-11.2-10.3c-2.2,4.1-3.4,8.6-3.4,13.2c0,4.6,1.1,9.2,3.4,13.2C117.6,27.2,123.6,21.9,124.5,20.6z"/>
		</g>
		<g>
			<path style="fill:#1A1A1A;" d="M52.2,49.7c2,1.4,2.9,1.2,2.9,1.2s0.9,0.2,2.9-1.2s13.6-15,14-15.7s2.2-28.5-1.3-31.4
				S55.1,0,55.1,0S43-0.2,39.5,2.6S37.8,33.3,38.2,34S50.2,48.3,52.2,49.7z"/>
			<path style="opacity:0.25;enable-background:new    ;" d="M52.2,49.7c2,1.4,2.9,1.2,2.9,1.2s0.9,0.2,2.9-1.2
				c1.3-0.9,6.6-6.9,10.3-11.2c-4.1-2.2-8.6-3.4-13.2-3.4c-4.6,0-9.2,1.1-13.2,3.4C45.6,42.8,50.9,48.8,52.2,49.7z"/>
		</g>
		<g>
			<path style="fill:#1A1A1A;" d="M175.9,2.2c-2.9-3.5-30.7-1.7-31.4-1.3s-14.3,12-15.7,14c-1.4,2-1.2,2.9-1.2,2.9s-0.2,0.9,1.2,2.9
				c1.4,2,15,13.6,15.7,14s28.5,2.2,31.4-1.3s2.6-15.6,2.6-15.6S178.8,5.7,175.9,2.2z"/>
			<path style="opacity:0.25;enable-background:new    ;" d="M140.1,4.6c-4.3,3.7-10.3,9-11.2,10.3c-1.4,2-1.2,2.9-1.2,2.9
				s-0.2,0.9,1.2,2.9c0.9,1.3,6.9,6.6,11.2,10.3c2.2-4.1,3.4-8.6,3.4-13.2C143.5,13.2,142.3,8.7,140.1,4.6z"/>
		</g>
		<g>
			<path style="fill:#1A1A1A;" d="M20.6,1.2c-2-1.4-2.9-1.2-2.9-1.2s-0.9-0.2-2.9,1.2s-13.6,15-14,15.7s-2.2,28.5,1.3,31.4
				s15.6,2.6,15.6,2.6s12.1,0.3,15.6-2.6s1.7-30.7,1.3-31.4S22.6,2.6,20.6,1.2z"/>
			<path style="opacity:0.25;enable-background:new    ;" d="M20.6,1.2c-2-1.4-2.9-1.2-2.9-1.2s-0.9-0.2-2.9,1.2
				C13.5,2.1,8.2,8.1,4.5,12.4c4.1,2.2,8.6,3.4,13.2,3.4c4.6,0,9.2-1.1,13.2-3.4C27.2,8.1,21.9,2.1,20.6,1.2z"/>
		</g>
	</g>
</g>
</svg>
