<?xml version="1.0" encoding="utf-8"?>
<!-- Generator: Adobe Illustrator 27.3.1, SVG Export Plug-In . SVG Version: 6.00 Build 0)  -->
<svg version="1.1" xmlns="http://www.w3.org/2000/svg" xmlns:xlink="http://www.w3.org/1999/xlink" x="0px" y="0px"
	 viewBox="0 0 224 112.4" style="enable-background:new 0 0 224 112.4;" xml:space="preserve">
<g id="BG" style="display:none;">
	<g id="Layer_2_00000029742221670212016530000015051892537243701923_" style="display:inline;">
		<rect x="0" style="fill:#7F002B;" width="224" height="112.4"/>
	</g>
</g>
<g id="Layer_1">
	<path style="fill:#FFFFFF;" d="M83.8,57.8c-15,0-27.3,12.2-27.3,27.2c0,15,12.2,27.3,27.2,27.3S111,100.1,111,85.1
		C111,70.1,98.8,57.9,83.8,57.8z"/>
	<path style="fill:#FFFFFF;" d="M27.3,57.8C12.2,57.8,0,70,0,85.1c0,15.1,12.2,27.3,27.3,27.3c15.1,0,27.3-12.2,27.3-27.3
		C54.6,70,42.4,57.8,27.3,57.8z"/>
	<path style="fill:#FFFFFF;" d="M140.3,57.8c-15,0-27.2,12.3-27.2,27.3s12.3,27.2,27.3,27.2S167.6,100,167.6,85
		C167.5,70,155.3,57.8,140.3,57.8z"/>
	<path style="fill:#FFFFFF;" d="M196.8,57.8c-15,0-27.3,12.2-27.3,27.2s12.2,27.3,27.2,27.3c15,0,27.3-12.2,27.3-27.2
		C224,70.1,211.8,57.9,196.8,57.8z"/>
</g>
<g id="Hide" style="display:none;">
	<g style="display:inline;">
		<g>
			<g>
				<path style="fill:#1A1A1A;" d="M83.8,53.5c-14.5,0-26.3-11.7-26.3-26.2S69.2,1,83.7,1C98.2,1,110,12.7,110,27.2
					C110,41.7,98.3,53.4,83.8,53.5z"/>
				<path style="fill:#0F0F0F;" d="M83.8,2C97.7,2,109,13.4,109,27.3S97.6,52.5,83.7,52.5c-13.9,0-25.2-11.3-25.2-25.2
					C58.5,13.4,69.7,2,83.7,2C83.7,2,83.8,2,83.8,2 M83.8,0C68.7-0.1,56.5,12.1,56.4,27.2s12.1,27.3,27.2,27.4s27.3-12.1,27.4-27.2
					c0,0,0-0.1,0-0.1C111,12.3,98.8,0.1,83.8,0z"/>
			</g>
			<path style="fill:#F16667;" d="M83.8,8.4c-10.4,0-18.9,8.5-18.9,18.9s8.5,18.9,18.9,18.9s18.9-8.5,18.9-18.9
				C102.7,16.9,94.2,8.4,83.8,8.4z M83.8,43.3c-8.8,0-16-7.2-16-16s7.2-16,16-16s16,7.2,16,16S92.6,43.3,83.8,43.3z"/>
		</g>
		<g>
			<g>
				<path style="fill:#1A1A1A;" d="M27.2,53.5C12.7,53.5,1,41.7,1,27.2S12.8,1,27.3,1c14.5,0,26.2,11.8,26.2,26.3
					C53.5,41.8,41.7,53.5,27.2,53.5z"/>
				<path style="fill:#0F0F0F;" d="M27.3,2c13.9,0,25.2,11.4,25.2,25.3S41.1,52.5,27.2,52.5C13.3,52.5,2,41.2,2,27.3
					C2,13.3,13.3,2,27.3,2 M27.3,0C12.2,0,0,12.2,0,27.3s12.2,27.3,27.3,27.3s27.3-12.2,27.3-27.3l0,0C54.6,12.2,42.4,0,27.3,0
					C27.3,0,27.3,0,27.3,0z"/>
			</g>
			<polygon style="fill:#7FB1DF;" points="41.6,14.9 39.6,12.9 27.3,25.2 14.9,12.9 12.9,14.9 25.2,27.2 12.9,39.6 14.9,41.6 
				27.3,29.3 39.6,41.6 41.6,39.6 29.3,27.2 			"/>
		</g>
		<g>
			<g>
				<path style="fill:#1A1A1A;" d="M140.3,54.2c-14.5,0-26.2-11.8-26.2-26.3c0-14.5,11.8-26.2,26.3-26.2c14.5,0,26.2,11.8,26.2,26.3
					C166.6,42.5,154.8,54.2,140.3,54.2C140.3,54.2,140.3,54.2,140.3,54.2z"/>
				<path style="fill:#0F0F0F;" d="M140.3,2.7c13.9,0,25.2,11.4,25.2,25.3c0,13.9-11.4,25.2-25.3,25.2c-13.9,0-25.2-11.4-25.2-25.3
					C115.1,14,126.4,2.7,140.3,2.7 M140.3,0.7c-15,0-27.2,12.3-27.2,27.3s12.3,27.2,27.3,27.2c15,0,27.2-12.2,27.2-27.2
					C167.6,12.9,155.4,0.7,140.3,0.7z"/>
			</g>
			<path style="fill:#CB79B1;" d="M151.8,13.5H126v28.6h28.6V13.5H151.8z M151.8,39.4h-23v-23h23V39.4z"/>
		</g>
		<g>
			<g>
				<path style="fill:#1A1A1A;" d="M196.7,54.8c-14.5,0-26.3-11.8-26.3-26.3s11.8-26.3,26.3-26.3C211.2,2.2,223,14,223,28.5
					c0,0,0,0.1,0,0.1C222.9,43.1,211.2,54.8,196.7,54.8z"/>
				<path style="fill:#0F0F0F;" d="M196.8,3.3c14,0,25.3,11.3,25.3,25.3s-11.3,25.3-25.3,25.3c-14,0-25.3-11.3-25.3-25.3
					C171.5,14.6,182.8,3.3,196.8,3.3 M196.8,1.3c-15.1-0.1-27.3,12.1-27.4,27.2c-0.1,15.1,12.1,27.3,27.2,27.4
					c15.1,0.1,27.3-12.1,27.4-27.2c0,0,0-0.1,0-0.1C224,13.6,211.8,1.4,196.8,1.3z"/>
			</g>
			<path style="fill:#66C194;" d="M212.7,36.6L196.7,9l-16,27.6l-1.6,2.8h35.2L212.7,36.6z M196.8,36.6h-12.7l12.7-21.9l12.7,21.9
				H196.8z"/>
		</g>
	</g>
</g>
</svg>
