<?xml version="1.0" encoding="utf-8"?>
<!-- Generator: Adobe Illustrator 27.3.1, SVG Export Plug-In . SVG Version: 6.00 Build 0)  -->
<svg version="1.1" xmlns="http://www.w3.org/2000/svg" xmlns:xlink="http://www.w3.org/1999/xlink" x="0px" y="0px"
	 viewBox="0 0 806.1 599" enable-background="new 0 0 806.1 599" xml:space="preserve">
<g id="BG" display="none">
	<g id="Layer_2_00000029742221670212016530000015051892537243701923_" display="inline">
		<rect fill="#7F002B" width="806" height="598.9"/>
	</g>
</g>
<g id="Layer_3">
</g>
<g id="Gamepad">
	<g>
		<path fill="#FFFFFF" d="M806,508.8v0.1c-0.1,2.1-2.9,51.6-35.1,73.5c-19.1,12.9-35.7,15.7-46.3,15.7c-7,0-11.4-1.2-12-1.4
			c-2-0.5-34.3-9-58.9-42.7c-24.1-33-54.4-119.5-56.8-126.4c-1.3-1.7-3-3.2-5-4.6c-1.7-1.1-3.5-1.9-5.3-2.2h-27.4
			c-11.1,6.5-24,10.3-37.9,10.3c-13.7,0-26.6-3.7-37.7-10.2H322.4c-11.1,6.5-24,10.2-37.7,10.2c-13.8,0-26.7-3.8-37.9-10.3h-27.4
			c-1.9,0.3-3.7,1.1-5.3,2.2c-2,1.4-3.7,2.9-5,4.6c-2.4,6.9-32.6,93.5-56.8,126.4c-24.8,33.9-57.5,42.3-58.9,42.7
			c-0.4,0.1-4.8,1.4-12,1.4c-10.6,0-27.2-2.7-46.3-15.7C2.9,560.5,1.1,511,1,508.9c0-2.8,0.3-67.5,4.6-90.6c0.6-3,1.5-9,2.7-16.5
			c4.8-30.6,14.8-94.4,26.4-128.3c5.6-16.6,9.1-32.3,12-44.9c1.9-8.5,3.4-15.2,5-20c12-35.6,33-65.9,33.3-66.2
			c4.6-6.2,9.4-13.7,9.8-15.5c0.7-3.7,4.6-8.9,5.1-9.5l0.4-0.5l0.6-0.2c0.2-0.1,2.2-0.7,6.1-1.5v-9.7l0.9-0.6l-0.1-0.1
			c0.6-0.3,14.6-8.7,52.5-8.7c37.6,0,47.7,2.9,48.1,3l0,0.1c0,0,0.1,0,0.1,0l1.4,0.4v14.2c6.4,1.2,8.4,2.3,8.6,2.4l0.3,0.2l0.2,0.3
			c1.5,1.8,3.3,3.2,5.3,4.3c2.5,1.3,8.6,1.5,10.7,1.5h33.5c0.3,0,1.5,0.1,2.3,0.9l0.2,0.2l0.2,0.3c0.1,0.3,0.3,0.6,0.4,0.9h1.7
			c2.5-2.6,6.1-4.2,10-4.2h239.8c3.9,0,7.4,1.6,10,4.2h1.5c0.1-0.3,0.2-0.6,0.4-0.9l0.2-0.3l0.2-0.2c0.6-0.6,1.5-1,2.5-0.9h33.2
			c2.1,0,8.2-0.2,10.7-1.5c2.1-1.2,3.9-2.7,5.4-4.4l0.2-0.2l0.3-0.2c0.2-0.1,2.2-1.2,8.7-2.4V99.5l1.4-0.4c0,0,0.1,0,0.2-0.1l0,0
			c0.4-0.1,10.5-3,48.1-3c37.8,0,51.9,8.3,52.4,8.7l-0.1,0.2l0.8,0.5v9.8c3.9,0.8,5.8,1.4,6,1.5l0.6,0.2l0.4,0.5
			c0.4,0.6,4.4,5.9,5.1,9.4c0.3,1.7,5.3,9.4,9.8,15.5c0.2,0.3,21.3,30.7,33.3,66.2c1.5,4.7,3,11.4,4.8,19.2
			c2.9,12.8,6.5,28.8,12.2,45.7c11.5,34,21.6,97.7,26.4,128.4c1.2,7.5,2.1,13.5,2.7,16.5C804.7,441.3,806,506,806,508.8z"/>
		<path fill="#FFFFFF" d="M199.1,89.4h-0.6c-10.4-0.7-27.4-1.7-39.1-1.7c-11.4,0-28.8,1.3-39.9,2.2h-0.7c-5,0-8.9-4.7-7.8-9.7
			c3.7-16.7,11.2-48,17.8-58.8C138,6.4,152.6,0,163.4,0C174.2,0,194,9,203,38c1.5,5.1,3.1,29.3,4.1,42.8
			C207.4,85.5,203.7,89.4,199.1,89.4z"/>
		<path fill="#FFFFFF" d="M687.4,89.9h-0.7c-11.2-0.9-28.5-2.2-39.9-2.2c-11.7,0-28.7,1-39.1,1.7h-0.6c-4.6,0-8.3-3.9-8-8.6
			c1-13.5,2.5-37.7,4.1-42.8c8.9-29,28.7-38,39.5-38s25.4,6.4,34.7,21.4c6.7,10.9,14.2,42.2,17.8,58.8
			C696.3,85.2,692.4,89.9,687.4,89.9z"/>
	</g>
	<g id="Layer_5" display="none">
		<polygon display="inline" fill="none" stroke="#FFFFFF" stroke-width="2" stroke-miterlimit="10" points="153.9,158.8 143.5,169 
			164.3,169 		"/>
	</g>
	<g id="Colors" display="none">
		<g display="inline">
			<g>
				<g>
					<path fill="#FFFFFF" d="M579.2,269.4c13.9,0,25.2,11.4,25.2,25.3s-11.4,25.2-25.3,25.2c-13.9,0-25.2-11.4-25.2-25.3
						C554,280.6,565.3,269.4,579.2,269.4 M579.2,267.4c-15.1,0-27.3,12.2-27.3,27.3s12.2,27.3,27.3,27.3s27.3-12.2,27.3-27.3l0,0
						C606.5,279.6,594.3,267.4,579.2,267.4z"/>
				</g>
				<path fill="#FF6666" d="M579.2,275.8c-10.4,0-18.9,8.5-18.9,18.9s8.5,18.9,18.9,18.9s18.9-8.5,18.9-18.9
					C598.1,284.2,589.7,275.8,579.2,275.8z M579.2,310.7c-8.8,0-16-7.2-16-16s7.2-16,16-16s16,7.2,16,16S588.1,310.7,579.2,310.7z"
					/>
			</g>
			<g>
				<g>
					<path fill="#FFFFFF" d="M521.6,327c14,0,25.3,11.3,25.3,25.3s-11.3,25.3-25.3,25.3s-25.3-11.3-25.3-25.3l0,0
						C496.4,338.3,507.7,327,521.6,327 M521.6,325c-15.1,0-27.3,12.2-27.3,27.3s12.2,27.3,27.3,27.3s27.3-12.2,27.3-27.3l0,0
						C548.9,337.2,536.7,325,521.6,325z"/>
				</g>
				<polygon fill="#7CB2E8" points="536,339.9 534,337.9 521.6,350.3 509.3,337.9 507.3,339.9 519.6,352.3 507.3,364.6 509.3,366.6 
					521.6,354.3 534,366.6 536,364.6 523.6,352.3 				"/>
			</g>
			<g>
				<g>
					<path fill="#FFFFFF" d="M464,269.4c13.9,0,25.2,11.4,25.2,25.3s-11.4,25.2-25.3,25.2s-25.2-11.4-25.2-25.3
						C438.8,280.6,450.1,269.4,464,269.4 M464,267.4c-15.1,0-27.3,12.2-27.3,27.3S449,322,464,322c15.1,0,27.3-12.2,27.3-27.3l0,0
						C491.3,279.6,479.1,267.4,464,267.4z"/>
				</g>
				<path fill="#FF69F8" d="M475.6,280.3h-25.8v28.6h28.6v-28.6H475.6z M475.6,306.2h-23v-23h23V306.2z"/>
			</g>
			<g>
				<g>
					<path fill="#FFFFFF" d="M521.6,211.9c14,0,25.3,11.3,25.3,25.3s-11.3,25.3-25.3,25.3s-25.3-11.3-25.3-25.3l0,0
						C496.4,223.2,507.7,211.9,521.6,211.9 M521.6,209.9c-15.1,0-27.3,12.2-27.3,27.3s12.2,27.3,27.3,27.3s27.3-12.2,27.3-27.3l0,0
						C548.9,222.1,536.7,209.9,521.6,209.9z"/>
				</g>
				<path fill="#40E2A0" d="M537.6,245.1l-16-27.6l-16,27.6l-1.6,2.8h35.2L537.6,245.1z M521.6,245.1h-12.7l12.7-21.9l12.7,21.9
					H521.6z"/>
			</g>
		</g>
	</g>
</g>
<g id="Hide" display="none">
	<circle display="inline" fill="none" stroke="#FFFFFF" stroke-width="4" stroke-miterlimit="10" cx="284.7" cy="356" r="51.5"/>
	<circle display="inline" fill="none" stroke="#FFFFFF" stroke-width="4" stroke-miterlimit="10" cx="521.3" cy="356" r="51.5"/>
	<path display="inline" fill="none" stroke="#FFFFFF" stroke-width="2" stroke-miterlimit="10" d="M230.4,254.1l9.5-8.9
		c0.5-0.4,0.5-1.2,0.1-1.6c0,0,0-0.1-0.1-0.1l-9.5-8.9c-0.4-0.4-1.2-0.4-1.6,0c-0.2,0.2-0.3,0.5-0.3,0.8v17.8c0,0.6,0.5,1.2,1.1,1.2
		C229.9,254.4,230.2,254.3,230.4,254.1z"/>
	<path display="inline" fill="none" stroke="#FFFFFF" stroke-width="2" stroke-miterlimit="10" d="M145,169.8h17.8
		c0.6,0,1.1-0.5,1.1-1.1c0-0.3-0.1-0.6-0.3-0.8l-8.9-9.5c-0.4-0.5-1.2-0.5-1.6-0.1c0,0-0.1,0-0.1,0.1l-8.9,9.5
		c-0.4,0.5-0.3,1.2,0.2,1.6C144.5,169.7,144.7,169.8,145,169.8z"/>
	<path display="inline" fill="none" stroke="#FFFFFF" stroke-width="2" stroke-miterlimit="10" d="M77.5,234.6l-9.5,8.9
		c-0.5,0.4-0.5,1.2-0.1,1.6c0,0,0,0.1,0.1,0.1l9.5,8.9c0.4,0.4,1.2,0.4,1.6,0c0.2-0.2,0.3-0.5,0.3-0.8v-17.8c0-0.6-0.4-1.2-1.1-1.2
		C78,234.3,77.7,234.4,77.5,234.6z"/>
	<path display="inline" fill="none" stroke="#FFFFFF" stroke-width="2" stroke-miterlimit="10" d="M162.8,318.8H145
		c-0.6,0-1.1,0.5-1.1,1.1c0,0.3,0.1,0.6,0.3,0.8l8.9,9.5c0.4,0.5,1.2,0.5,1.6,0.1c0,0,0.1,0,0.1-0.1l8.9-9.5
		c0.4-0.5,0.3-1.2-0.2-1.6C163.3,318.9,163.1,318.8,162.8,318.8z"/>
</g>
</svg>
