<?xml version="1.0" encoding="utf-8"?>
<!-- Generator: Adobe Illustrator 27.3.1, SVG Export Plug-In . SVG Version: 6.00 Build 0)  -->
<svg version="1.1" xmlns="http://www.w3.org/2000/svg" xmlns:xlink="http://www.w3.org/1999/xlink" x="0px" y="0px"
	 viewBox="0 0 806.1 599" style="enable-background:new 0 0 806.1 599;" xml:space="preserve">
<style type="text/css">
	.st0{display:none;}
	.st1{display:inline;}
	.st2{fill:#7F002B;}
	.st3{fill:none;stroke:#FFFFFF;stroke-width:4;stroke-miterlimit:10;}
	.st4{fill:none;stroke:#FFFFFF;stroke-width:2;stroke-miterlimit:10;}
	.st5{fill:#FFFFFF;}
	.st6{fill:#F2F2F2;}
	.st7{fill:none;stroke:#FFFFFF;stroke-width:3;stroke-miterlimit:10;}
	.st8{fill:none;stroke:#FFFFFF;stroke-width:2;stroke-linecap:round;stroke-linejoin:round;stroke-miterlimit:10;}
	.st9{display:inline;fill:none;stroke:#FFFFFF;stroke-width:2;stroke-miterlimit:10;}
	.st10{fill:#FF6666;}
	.st11{fill:#7CB2E8;}
	.st12{fill:#FF69F8;}
	.st13{fill:#40E2A0;}
</style>
<g id="Layer_2" class="st0">
	<g id="Layer_2_00000029742221670212016530000015051892537243701923_" class="st1">
		<rect class="st2" width="806" height="598.9"/>
	</g>
</g>
<g id="Layer_1">
	<g>
		<path class="st3" d="M274,126.6h-4.1c-0.1-0.7-0.3-1.4-0.6-2c-0.2-0.2-0.6-0.3-0.9-0.3H235c0,0-8.2,0.2-11.7-1.7
			c-2.2-1.2-4.2-2.8-5.9-4.8c0,0-8.8-5-53.7-5s-62.3,5.7-62.3,5.7s-4.1,5.3-4.7,8.6c-0.6,3.3-10.1,16.3-10.1,16.3s-21,30-33,65.7
			c-4,11.9-7.7,37.2-17,64.9c-14.3,42.1-26.1,129.1-29,144.6C3.3,441.8,3,508.8,3,508.8s1.5,50.4,33.2,71.9s56.7,14,56.7,14
			s33.1-8.2,57.8-41.9s56.6-126.2,56.6-126.2c1.6-2.1,3.5-3.8,5.7-5.3c1.9-1.3,4-2.2,6.3-2.6h28"/>
		<path class="st3" d="M558.7,418.7h28c2.3,0.4,4.4,1.3,6.3,2.6c2.2,1.5,4.1,3.2,5.7,5.3c0,0,31.9,92.4,56.6,126.2
			s57.8,41.9,57.8,41.9s25,7.5,56.7-14s34.2-71.9,34.2-71.9s-1.3-67-5.7-90.2c-2.9-15.5-14.7-102.5-29-144.6
			c-9.4-27.7-13.1-53-17-64.9c-12-35.7-33-65.7-33-65.7s-9.5-13.1-10.1-16.3s-4.7-8.6-4.7-8.6s-17.4-5.7-62.3-5.7s-53.7,5-53.7,5
			c-1.7,1.9-3.7,3.5-5.9,4.8c-3.5,1.8-11.7,1.7-11.7,1.7h-33.4c-0.3-0.1-0.7,0.1-0.9,0.3c-0.3,0.6-0.5,1.3-0.6,2h-4"/>
		<path class="st3" d="M322,418.8h81h81"/>
	</g>
	<g>
		<circle class="st3" cx="284.7" cy="356" r="73"/>
		<circle class="st3" cx="284.7" cy="356" r="51.5"/>
	</g>
	<g>
		<circle class="st3" cx="521.3" cy="356" r="73"/>
		<circle class="st3" cx="521.3" cy="356" r="51.5"/>
	</g>
	<circle class="st3" cx="652.3" cy="244.8" r="94.3"/>
	<circle class="st3" cx="153.7" cy="244.8" r="94.3"/>
	<path class="st4" d="M230.4,254.1l9.5-8.9c0.5-0.4,0.5-1.2,0.1-1.6c0,0,0-0.1-0.1-0.1l-9.5-8.9c-0.4-0.4-1.2-0.4-1.6,0
		c-0.2,0.2-0.3,0.5-0.3,0.8v17.8c0,0.6,0.5,1.2,1.1,1.2C229.9,254.4,230.2,254.3,230.4,254.1z"/>
	<path class="st4" d="M145,169.8h17.8c0.6,0,1.1-0.5,1.1-1.1c0-0.3-0.1-0.6-0.3-0.8l-8.9-9.5c-0.4-0.5-1.2-0.5-1.6-0.1
		c0,0-0.1,0-0.1,0.1l-8.9,9.5c-0.4,0.5-0.3,1.2,0.2,1.6C144.5,169.7,144.7,169.8,145,169.8z"/>
	<path class="st4" d="M77.5,234.6l-9.5,8.9c-0.5,0.4-0.5,1.2-0.1,1.6c0,0,0,0.1,0.1,0.1l9.5,8.9c0.4,0.4,1.2,0.4,1.6,0
		c0.2-0.2,0.3-0.5,0.3-0.8v-17.8c0-0.6-0.4-1.2-1.1-1.2C78,234.3,77.7,234.4,77.5,234.6z"/>
	<path class="st4" d="M162.8,318.8H145c-0.6,0-1.1,0.5-1.1,1.1c0,0.3,0.1,0.6,0.3,0.8l8.9,9.5c0.4,0.5,1.2,0.5,1.6,0.1
		c0,0,0.1,0,0.1-0.1l8.9-9.5c0.4-0.5,0.3-1.2-0.2-1.6C163.3,318.9,163.1,318.8,162.8,318.8z"/>
	<g>
		<path class="st3" d="M244.5,133.5c6.9,0,12.5,5.6,12.5,12.5v18.3c0,6.9-5.6,12.5-12.5,12.5s-12.5-5.6-12.5-12.5V146
			C232,139.1,237.6,133.5,244.5,133.5 M244.5,131.8c-7.8,0-14.2,6.4-14.2,14.2v18.3c0,7.8,6.4,14.2,14.2,14.2s14.2-6.4,14.2-14.2
			V146C258.7,138.2,252.4,131.8,244.5,131.8L244.5,131.8z"/>
		<path class="st3" d="M244.5,133.5c-6.9,0-12.5,5.6-12.5,12.5v18.3c0,6.9,5.6,12.5,12.5,12.5s12.5-5.6,12.5-12.5V146
			C257,139.1,251.4,133.5,244.5,133.5z"/>
	</g>
	<g>
		<path class="st3" d="M561.5,133.5c6.9,0,12.5,5.6,12.5,12.5v18.3c0,6.9-5.6,12.5-12.5,12.5l0,0l0,0c-6.9,0-12.5-5.6-12.5-12.5l0,0
			V146C549,139.1,554.6,133.5,561.5,133.5L561.5,133.5 M561.5,131.8c-7.8,0-14.2,6.4-14.2,14.2v18.3c0,7.8,6.4,14.2,14.2,14.2
			s14.2-6.4,14.2-14.2l0,0V146C575.7,138.2,569.4,131.8,561.5,131.8L561.5,131.8z"/>
		<path class="st3" d="M561.5,133.5c-6.9,0-12.5,5.6-12.5,12.5v18.3c0,6.9,5.6,12.5,12.5,12.5s12.5-5.6,12.5-12.5V146
			C574,139.1,568.4,133.5,561.5,133.5z"/>
	</g>
	<g>
		<g>
			<path class="st3" d="M141.2,247.2c1.4-2,1.2-2.9,1.2-2.9s0.2-0.9-1.2-2.9s-15-13.6-15.7-14s-28.5-2.2-31.4,1.3
				s-2.6,15.6-2.6,15.6s-0.3,12.1,2.6,15.6s30.7,1.7,31.4,1.3S139.8,249.2,141.2,247.2z"/>
		</g>
		<g>
			<path class="st3" d="M151,231.6c2,1.4,2.9,1.2,2.9,1.2s0.9,0.2,2.9-1.2s13.6-15,14-15.7s2.2-28.5-1.3-31.4s-15.6-2.6-15.6-2.6
				s-12.1-0.3-15.6,2.6s-1.7,30.7-1.3,31.4S149,230.2,151,231.6z"/>
		</g>
		<g>
			<path class="st3" d="M213.7,228.8c-2.9-3.5-30.7-1.7-31.4-1.3s-14.3,12-15.7,14s-1.2,2.9-1.2,2.9s-0.2,0.9,1.2,2.9
				s15,13.6,15.7,14s28.5,2.2,31.4-1.3s2.6-15.6,2.6-15.6S216.6,232.3,213.7,228.8z"/>
		</g>
		<g>
			<path class="st3" d="M156.8,257.1c-2-1.4-2.9-1.2-2.9-1.2s-0.9-0.2-2.9,1.2s-13.6,15-14,15.7s-2.2,28.5,1.3,31.4
				s15.6,2.6,15.6,2.6s12.1,0.3,15.6-2.6s1.7-30.7,1.3-31.4S158.8,258.5,156.8,257.1z"/>
		</g>
	</g>
	<g>
		<g>
			<path class="st3" d="M598.4,100.9c0,0,9.8-2.9,47.5-2.9s51.4,8.4,51.4,8.4"/>
			<path class="st3" d="M697.1,113.4L697.1,113.4v-6.9c0,0-13.7-8.4-51.4-8.4s-47.5,2.9-47.5,2.9v11l0,0c7.7-1.3,21.2-2.6,44.1-2.6
				C670.8,109.4,688.2,111.8,697.1,113.4z"/>
		</g>
		<g>
			<path class="st3" d="M207.7,100.9c0,0-9.8-2.9-47.5-2.9s-51.4,8.4-51.4,8.4"/>
			<path class="st3" d="M108.9,113.4L108.9,113.4v-6.9c0,0,13.7-8.4,51.4-8.4s47.5,2.9,47.5,2.9v11l0,0c-7.7-1.3-21.2-2.6-44.1-2.6
				C135.2,109.4,117.8,111.8,108.9,113.4z"/>
		</g>
	</g>
	<g>
		<g>
			<path class="st5" d="M163.4,4c8.6,0,27.1,7.4,35.7,35.2c1.2,4,2.7,23.9,3.5,35.8c0.2,2.2,0.3,4.2,0.4,6.1c0.1,1.1-0.3,2.2-1.1,3
				s-1.8,1.3-2.9,1.3c-0.1,0-0.2,0-0.3,0c-11.6-0.8-27.9-1.7-39.4-1.7c-11.3,0-28.1,1.2-40.2,2.2c-0.1,0-0.2,0-0.4,0
				c-1.2,0-2.3-0.5-3.1-1.5c-0.4-0.6-1.1-1.7-0.8-3.4c6.4-29.1,12.7-50.1,17.3-57.5C141,9.1,154.5,4,163.4,4 M163.4,0
				c-10.8,0-25.4,6.4-34.6,21.4c-6.6,10.8-14.1,42.1-17.8,58.8c-1.1,5,2.8,9.7,7.8,9.7c0.2,0,0.5,0,0.7,0
				c11.1-0.9,28.5-2.2,39.9-2.2c11.7,0,28.7,1,39.1,1.7c0.2,0,0.4,0,0.6,0c4.6,0,8.3-3.9,8-8.6c-1-13.5-2.6-37.7-4.1-42.8
				C194,9,174.2,0,163.4,0L163.4,0z"/>
		</g>
		<g>
			<path class="st5" d="M642.7,4c8.9,0,22.4,5.1,31.2,19.5c4.6,7.5,10.9,28.4,17.3,57.5c0.4,1.6-0.3,2.8-0.8,3.4
				c-0.8,0.9-1.9,1.5-3.1,1.5c-0.1,0-0.2,0-0.4,0c-12.1-1-28.9-2.2-40.2-2.2c-11.4,0-27.7,0.9-39.4,1.7c-0.1,0-0.2,0-0.3,0
				c-1.1,0-2.2-0.5-2.9-1.3c-0.8-0.8-1.1-1.9-1.1-3c0.1-1.8,0.3-3.9,0.4-6.1c0.9-11.9,2.3-31.9,3.5-35.8C615.6,11.4,634.1,4,642.7,4
				 M642.7,0c-10.8,0-30.6,9-39.5,38c-1.6,5.1-3.1,29.3-4.1,42.8c-0.3,4.7,3.4,8.6,8,8.6c0.2,0,0.4,0,0.6,0
				c10.4-0.7,27.4-1.7,39.1-1.7c11.4,0,28.7,1.3,39.9,2.2c0.2,0,0.5,0,0.7,0c5,0,8.9-4.7,7.8-9.7c-3.6-16.6-11.1-47.9-17.8-58.8
				C668.1,6.4,653.5,0,642.7,0L642.7,0z"/>
		</g>
	</g>
	<path class="st3" d="M522.9,122.4H283.1c-6.6,0-12,5.4-12,12v112.4c0,13.3,10.7,24,24,24h215.8c13.3,0,24-10.7,24-24V134.4
		C534.9,127.8,529.6,122.4,522.9,122.4z"/>
	<g>
		<path class="st6" d="M405.5,206.7v-28.1c-0.1-0.8,0.1-1.6,0.7-2.2c0.3-0.5,1-0.7,1.5-0.4c1.3,0.4,2,1.5,2,3.7v15.1
			c1.4,0.7,3,1.1,4.6,1.1c1.3,0,2.5-0.4,3.5-1.1c2.2-1.5,3.3-4.2,3.3-8.1c0.3-3.4-0.7-6.7-2.6-9.4c-2.4-2.7-5.5-4.7-9-5.7
			c-2.9-0.9-5.5-1.8-7.9-2.4c-2.4-0.7-4.4-1.1-6.4-1.5v26.8l0,0v5.9l0,0v3.7l0,0v5.5l0,0v3.3l10.3,3.3v-7.9l0,0V206.7z"/>
		<path class="st6" d="M394.3,204.5l-3.7,1.3l-2,0.9l-3.5,0.7l-3.3-0.4c-0.7-0.4-0.9-0.9-0.4-1.3s0.4-0.2,0.7-0.4
			c0.2-0.2,0.7-0.2,0.9-0.4l2.4-0.9l9-3.3v-5.9l-3.7,1.1l-12.1,4.4l-2.2,0.9c-3.3,1.3-4.8,2.6-4.8,4c0.2,1.8,2.2,3.3,5.9,4.2
			c3.1,0.8,6.3,1.2,9.4,1.1c2.4,0,4.9-0.2,7.2-0.7v-5L394.3,204.5z"/>
		<path class="st6" d="M429,199.4c-1.8-0.6-3.6-1.1-5.5-1.3c-1.8-0.3-3.7-0.4-5.5-0.2c-2.1,0.1-4.1,0.3-6.1,0.7s-3.9,1-5.7,1.8v6.1
			l8.6-3.1l3.5-1.1l2.4-0.7h3.1c0.7,0.2,1.3,0.4,1.5,0.9c0.2,0.4-0.4,0.9-1.8,1.3l-3.1,1.1l-14.3,5.3v5.9l7.7-2.9l14-5l1.5-0.9
			c3.3-1.1,4.8-2.6,4.8-4.2C434.3,201.6,432.5,200.5,429,199.4z"/>
	</g>
	<g id="Layer_4">
		<circle class="st7" cx="596.8" cy="244.7" r="26.1"/>
		<path class="st4" d="M607.1,259h-20.6c-2.2,0-4-1.8-4-4v-20.6c0-2.2,1.8-4,4-4h20.6c2.2,0,4,1.8,4,4V255
			C611.1,257.2,609.3,259,607.1,259z"/>
		<circle class="st7" cx="707.8" cy="244.7" r="26.1"/>
		<circle class="st4" cx="707.8" cy="244.7" r="15.7"/>
		<circle class="st7" cx="652.3" cy="189.3" r="26.1"/>
		<path class="st8" d="M650.6,174.7l-12.8,22.1c-0.8,1.3,0.2,3,1.7,3h25.6c1.5,0,2.5-1.7,1.7-3L654,174.7
			C653.3,173.3,651.4,173.3,650.6,174.7z"/>
		<circle class="st7" cx="652.3" cy="300.4" r="26.1"/>
		<g>
			<line class="st8" x1="640.5" y1="288.5" x2="664.2" y2="312.2"/>
			<line class="st8" x1="664.2" y1="288.5" x2="640.5" y2="312.2"/>
		</g>
	</g>
	<g id="Layer_5" class="st0">
		<polygon class="st9" points="153.9,158.8 143.5,169 164.3,169 		"/>
	</g>
	<g id="Colors" class="st0">
		<g class="st1">
			<g>
				<g>
					<path class="st5" d="M579.2,269.4c13.9,0,25.2,11.4,25.2,25.3s-11.4,25.2-25.3,25.2c-13.9,0-25.2-11.4-25.2-25.3
						C554,280.6,565.3,269.4,579.2,269.4 M579.2,267.4c-15.1,0-27.3,12.2-27.3,27.3s12.2,27.3,27.3,27.3s27.3-12.2,27.3-27.3l0,0
						C606.5,279.6,594.3,267.4,579.2,267.4z"/>
				</g>
				<path class="st10" d="M579.2,275.8c-10.4,0-18.9,8.5-18.9,18.9s8.5,18.9,18.9,18.9s18.9-8.5,18.9-18.9
					C598.1,284.2,589.7,275.8,579.2,275.8z M579.2,310.7c-8.8,0-16-7.2-16-16s7.2-16,16-16s16,7.2,16,16S588.1,310.7,579.2,310.7z"
					/>
			</g>
			<g>
				<g>
					<path class="st5" d="M521.6,327c14,0,25.3,11.3,25.3,25.3s-11.3,25.3-25.3,25.3s-25.3-11.3-25.3-25.3l0,0
						C496.4,338.3,507.7,327,521.6,327 M521.6,325c-15.1,0-27.3,12.2-27.3,27.3s12.2,27.3,27.3,27.3s27.3-12.2,27.3-27.3l0,0
						C548.9,337.2,536.7,325,521.6,325z"/>
				</g>
				<polygon class="st11" points="536,339.9 534,337.9 521.6,350.3 509.3,337.9 507.3,339.9 519.6,352.3 507.3,364.6 509.3,366.6 
					521.6,354.3 534,366.6 536,364.6 523.6,352.3 				"/>
			</g>
			<g>
				<g>
					<path class="st5" d="M464,269.4c13.9,0,25.2,11.4,25.2,25.3s-11.4,25.2-25.3,25.2s-25.2-11.4-25.2-25.3
						C438.8,280.6,450.1,269.4,464,269.4 M464,267.4c-15.1,0-27.3,12.2-27.3,27.3S449,322,464,322c15.1,0,27.3-12.2,27.3-27.3l0,0
						C491.3,279.6,479.1,267.4,464,267.4z"/>
				</g>
				<path class="st12" d="M475.6,280.3h-25.8v28.6h28.6v-28.6H475.6z M475.6,306.2h-23v-23h23V306.2z"/>
			</g>
			<g>
				<g>
					<path class="st5" d="M521.6,211.9c14,0,25.3,11.3,25.3,25.3s-11.3,25.3-25.3,25.3s-25.3-11.3-25.3-25.3l0,0
						C496.4,223.2,507.7,211.9,521.6,211.9 M521.6,209.9c-15.1,0-27.3,12.2-27.3,27.3s12.2,27.3,27.3,27.3s27.3-12.2,27.3-27.3l0,0
						C548.9,222.1,536.7,209.9,521.6,209.9z"/>
				</g>
				<path class="st13" d="M537.6,245.1l-16-27.6l-16,27.6l-1.6,2.8h35.2L537.6,245.1z M521.6,245.1h-12.7l12.7-21.9l12.7,21.9H521.6
					z"/>
			</g>
		</g>
	</g>
</g>
</svg>
