<?xml version="1.0" encoding="utf-8"?>
<!-- Generator: Adobe Illustrator 27.3.1, SVG Export Plug-In . SVG Version: 6.00 Build 0)  -->
<svg version="1.1" xmlns="http://www.w3.org/2000/svg" xmlns:xlink="http://www.w3.org/1999/xlink" x="0px" y="0px"
	 viewBox="0 0 286 94" style="enable-background:new 0 0 286 94;" xml:space="preserve">
<style type="text/css">
	.st0{display:none;}
	.st1{display:inline;fill:#7F002B;}
	.st2{display:inline;}
	.st3{fill:#F0F0F0;}
	.st4{fill:#EDEDED;}
	.st5{fill:#EBEBEB;}
	.st6{fill:#FFFFFF;}
</style>
<g id="BG" class="st0">
	<rect y="0" class="st1" width="286" height="94"/>
</g>
<g id="Layer_1" class="st0">
	<g class="st2">
		<g>
			<path class="st3" d="M239,92.5c-25.1,0-45.5-20.4-45.5-45.5S213.9,1.5,239,1.5s45.5,20.4,45.5,45.5
				C284.5,72.1,264.1,92.5,239,92.5z"/>
			<path class="st4" d="M239,3c24.3,0,44,19.7,44,44s-19.7,44-44,44s-44-19.7-44-44S214.7,3,239,3 M239,0c-26,0-47,21-47,47
				s21,47,47,47s47-21,47-47c0-25.9-21-47-46.9-47C239.1,0,239,0,239,0z"/>
		</g>
		<ellipse transform="matrix(0.1735 -0.9848 0.9848 0.1735 151.2456 274.2205)" class="st5" cx="239" cy="47" rx="27.3" ry="27.3"/>
		<g>
			<path d="M218.7,33.5h12.6c5.8,0,8.7,2.7,8.7,7.1c0,5.1-3.5,6.4-4.4,6.7v0.1c1.6,0.2,3.9,1.4,3.9,5.6c0,3.1,0.4,5.9,1.4,7h-5
				c-0.6-1.2-0.8-2.6-0.7-3.9c0-4.8-1-7-5.3-7h-6.8V60h-4.6V33.5H218.7z M223.3,45.6h7.6c3,0,4.5-1.4,4.5-4.2c0-3.4-2.2-4-4.6-4
				h-7.5V45.6z"/>
			<path d="M250.3,44.8c2.8,0.1,5.7-0.9,5.7-4.1c0-2-1.7-3.7-3.7-3.7c-0.1,0-0.2,0-0.3,0c-2.9,0-4.4,2.6-4.3,5.3h-4.2
				c0.2-5,3.4-8.8,8.6-8.8c4,0,8.2,2.3,8.2,6.9c0,2.6-1.1,4.7-3.7,5.5V46c3,0.6,4.7,3.1,4.7,6.5c0,4.9-4.3,7.9-9.2,7.9
				c-6,0-9-3.6-9.1-9h4.2c-0.1,3.1,1.6,5.5,4.9,5.5c2.8,0,5-1.7,5-4.6c0-4-3.4-4.5-6.8-4.4V44.8z"/>
		</g>
	</g>
	<g class="st2">
		<g>
			<path class="st3" d="M143,92.5c-25.1,0-45.5-20.4-45.5-45.5S117.9,1.5,143,1.5s45.5,20.4,45.5,45.5
				C188.5,72.1,168.1,92.5,143,92.5z"/>
			<path class="st4" d="M143,3c24.3,0,44,19.7,44,44s-19.7,44-44,44S99,71.3,99,47S118.7,3,143,3 M143,0c-26,0-47,21-47,47
				s21,47,47,47s47-21,47-47c0-25.9-21-47-46.9-47C143.1,0,143,0,143,0z"/>
		</g>
		<circle class="st5" cx="143" cy="47" r="27.3"/>
		<g>
			<path d="M125.1,33.5h4.6v22.4h13.4v4h-18L125.1,33.5z"/>
			<path d="M151.9,44.8c2.8,0.1,5.7-0.9,5.7-4.1c0-2-1.7-3.7-3.7-3.7c-0.1,0-0.2,0-0.3,0c-2.9,0-4.4,2.6-4.3,5.3h-4.2
				c0.2-5,3.4-8.8,8.6-8.8c4,0,8.2,2.3,8.2,6.9c0,2.6-1.1,4.7-3.7,5.5V46c3,0.6,4.7,3.1,4.7,6.5c0,4.9-4.3,7.9-9.2,7.9
				c-6,0-9-3.6-9.1-9h4.2c-0.1,3.1,1.6,5.5,4.9,5.5c2.8,0,5-1.7,5-4.6c0-4-3.4-4.5-6.8-4.4L151.9,44.8L151.9,44.8z"/>
		</g>
	</g>
</g>
<g id="Layer_3">
	<g>
		<g>
			<path class="st6" d="M47,4.5c23.4,0,42.5,19.1,42.5,42.5c0,23.4-19.1,42.5-42.5,42.5C23.6,89.5,4.5,70.4,4.5,47S23.6,4.5,47,4.5
				 M47,1.5C21.9,1.5,1.5,21.9,1.5,47S21.9,92.5,47,92.5c25.1,0,45.5-20.4,45.5-45.5C92.5,21.9,72.1,1.5,47,1.5L47,1.5z"/>
		</g>
	</g>
	<g>
		<path class="st6" d="M47,21.7C61,21.7,72.3,33,72.3,47S61,72.3,47,72.3S21.7,61,21.7,47S33,21.7,47,21.7 M47,19.7
			c-15.1,0-27.3,12.2-27.3,27.3S31.9,74.3,47,74.3S74.3,62.1,74.3,47S62.1,19.7,47,19.7L47,19.7z"/>
	</g>
	<g>
		<g>
			<path class="st6" d="M143,92.5c-25.1,0-45.5-20.4-45.5-45.5S117.9,1.5,143,1.5s45.5,20.4,45.5,45.5
				C188.5,72.1,168.1,92.5,143,92.5z"/>
		</g>
	</g>
	<g>
		<g>
			<path class="st6" d="M239,92.5c-25.1,0-45.5-20.4-45.5-45.5S213.9,1.5,239,1.5s45.5,20.4,45.5,45.5
				C284.5,72.1,264.1,92.5,239,92.5z"/>
		</g>
	</g>
</g>
</svg>
