<?xml version="1.0" encoding="utf-8"?>
<!-- Generator: Adobe Illustrator 27.3.1, SVG Export Plug-In . SVG Version: 6.00 Build 0)  -->
<svg version="1.1" xmlns="http://www.w3.org/2000/svg" xmlns:xlink="http://www.w3.org/1999/xlink" x="0px" y="0px"
	 viewBox="0 0 200 90.8" style="enable-background:new 0 0 200 90.8;" xml:space="preserve">
<g id="BG" style="display:none;">
	<rect style="display:inline;fill:#7F002B;" width="200" height="90.8"/>
</g>
<g id="Layer_2">
	<g>
		<path style="fill:#FFFFFF;" d="M54.6,0.5C43.8,0.5,29.2,6.9,20,21.9C13.4,32.7,5.9,64,2.2,80.7c-1.1,5,2.8,9.7,7.8,9.7
			c0.2,0,0.5,0,0.7,0c11.1-0.9,28.5-2.2,39.9-2.2c11.7,0,28.7,1,39.1,1.7c0.2,0,0.4,0,0.6,0c4.6,0,8.3-3.9,8-8.6
			c-1-13.5-2.6-37.7-4.1-42.8C85.2,9.5,65.4,0.5,54.6,0.5L54.6,0.5z"/>
	</g>
	<path style="fill:#FFFFFF;" d="M197.8,80.6c-3.6-16.6-11.1-47.9-17.8-58.8c-9.3-15-23.9-21.4-34.7-21.4c-10.8,0-30.6,9-39.5,38
		c-1.6,5.1-3.1,29.3-4.1,42.8c-0.3,4.7,3.4,8.6,8,8.6h0.6c10.4-0.7,27.4-1.7,39.1-1.7c11.4,0,28.7,1.3,39.9,2.2h0.7
		C195,90.3,198.9,85.6,197.8,80.6z"/>
</g>
<g id="Hide" style="display:none;">
	<g style="display:inline;">
		<g>
			<path style="fill:#EDEDED;" d="M200,90.8c0,0-32.7-3.2-50.6-3.2S101,90,101,90s3.1-44.7,4.8-52s7.7-21.3,16.9-27.9
				c9.2-6.6,12-10.1,22.8-10.1s25.4,6.4,34.6,21.4S200,90.8,200,90.8z"/>
			<path style="fill:#F5F5F5;" d="M101.5,83.2c0,0,26.1-4.4,49-4.4s47.9,4.4,47.9,4.4c1,4.7,1.6,7.6,1.6,7.6s-32.7-3.2-50.6-3.2
				S101,90,101,90S101.2,87.3,101.5,83.2z"/>
		</g>
		<g style="opacity:8.000000e-02;">
			<path d="M151.5,65.7l-3.2,2.6c-1.2,1.2-1.9,2.8-2,4.5h9.8v-2.6h-6.2c0.6-0.8,1.3-1.4,2.1-1.9c1-0.6,1.9-1.3,2.7-2.1
				c0.8-0.9,1.3-2.1,1.3-3.3c0-1.3-0.5-2.5-1.4-3.3c-1-0.8-2.2-1.2-3.5-1.2c-3.1,0-4.7,1.7-4.7,5h2.7c0-1.8,0.7-2.7,2.1-2.7
				c1-0.1,1.9,0.6,2,1.6c0,0.2,0,0.3,0,0.5C153.3,63.9,152.7,64.8,151.5,65.7z"/>
			<path d="M134,67.2h3c1.5,0,2.3,0.6,2.4,1.9s0.2,2.5,0.3,3.8h3.3v-0.4c-0.5-0.2-0.7-0.7-0.7-1.5c0-0.3,0-0.5,0.1-0.8v-0.7
				c0.2-1.4-0.6-2.8-1.8-3.5c1.4-0.5,2.3-1.9,2.2-3.4c0.1-1.2-0.4-2.3-1.3-3c-0.9-0.7-2-1.1-3.2-1H131v14.3h3V67.2z M134,61h3.7
				c1.4,0,2.1,0.6,2.1,1.9c0,1.3-0.8,1.9-2.3,1.9H134V61z"/>
		</g>
	</g>
	<g style="display:inline;">
		<g>
			<path style="fill:#EDEDED;" d="M0.1,90.8c0,0,32.7-3.2,50.6-3.2S99,90,99,90s-3.1-44.7-4.8-52s-7.7-21.3-16.9-27.9S65.4,0,54.6,0
				S29.2,6.4,20,21.4S0.1,90.8,0.1,90.8z"/>
			<path style="fill:#F5F5F5;" d="M98.5,83.2c0,0-26.1-4.4-49-4.4S1.6,83.2,1.6,83.2c-1,4.7-1.6,7.6-1.6,7.6s32.7-3.2,50.6-3.2
				S99,90,99,90S98.9,87.3,98.5,83.2z"/>
		</g>
		<g style="opacity:8.000000e-02;">
			<path d="M64.6,65.7l-3.2,2.6c-1.2,1.2-1.9,2.8-2,4.5h9.7v-2.6h-6.2c0.6-0.8,1.3-1.4,2.1-1.9c1-0.6,1.9-1.3,2.7-2.1
				c0.8-0.9,1.3-2.1,1.3-3.3c0-1.3-0.5-2.5-1.4-3.3c-1-0.8-2.2-1.2-3.5-1.2c-3.1,0-4.7,1.7-4.7,5h2.7c0-1.8,0.7-2.7,2.1-2.7
				c1-0.1,1.9,0.6,2,1.6c0,0.2,0,0.3,0,0.5C66.3,64,65.6,65.1,64.6,65.7z"/>
			<polygon points="56.1,70.2 49,70.2 49,58.5 46,58.5 46,72.8 56.1,72.8 			"/>
		</g>
	</g>
</g>
</svg>
